<svg width="80" height="84" viewBox="0 0 80 84" fill="none" xmlns="http://www.w3.org/2000/svg">
<path d="M37.2355 43.7737C38.3271 44.7942 39.7398 45.4933 41.3374 45.6955L55.0029 47.4258L54.1639 54.052L63.6654 48.5226L67.4025 48.9958C71.431 49.5059 75.1091 46.6636 75.6176 42.6473L78.9078 16.6617C79.4164 12.6454 76.5629 8.97618 72.5342 8.46609L46.4689 5.16582C42.4403 4.65575 38.7623 7.498 38.2538 11.5143L34.2177 43.3916L37.2355 43.7737Z" fill="#F7F3F1"/>
<path d="M72.5341 8.4661L66.2863 7.67502C70.315 8.18512 73.1685 11.8545 72.66 15.8706L69.3698 41.8563C68.8613 45.8726 65.1833 48.7148 61.1547 48.2047L57.4177 47.7316L54.769 49.2729L54.1639 54.052L63.6654 48.5226L67.4024 48.9958C71.431 49.5059 75.109 46.6636 75.6175 42.6473L78.9077 16.6617C79.4163 12.6456 76.5627 8.97617 72.5341 8.4661Z" fill="#EFE7E3"/>
<path d="M50.0985 35.9749L50.7733 36.6786C51.8432 37.7945 53.2636 38.5092 54.7972 38.7034L65.4703 40.0548C66.4821 40.1829 67.4037 39.442 67.4849 38.4135C67.5611 37.4503 68.7124 28.7358 68.8369 27.7527C68.9613 26.7695 68.2652 25.8714 67.2819 25.7469L60.0473 24.8087L61.1991 22.8222C61.7896 21.8039 62.1372 20.663 62.215 19.4885C62.2928 18.3139 62.0986 17.1372 61.6476 16.0499C61.1355 14.985 59.5434 15.1514 59.3601 16.3574C59.1218 18.2394 58.2046 19.9696 56.7808 21.2231L51.5046 25.8608L49.8222 25.6478L48.5396 35.7773L50.0985 35.9749Z" fill="#FFD36C"/>
<path d="M49.1749 37.4896L44.302 36.8726C44.1473 36.8531 44.0067 36.7728 43.9112 36.6496C43.8156 36.5264 43.7729 36.3702 43.7925 36.2155L45.3654 23.7935C45.3849 23.6388 45.4652 23.4982 45.5884 23.4027C45.7116 23.3071 45.8678 23.2645 46.0225 23.2841L50.8954 23.901C50.972 23.9107 51.0459 23.9354 51.113 23.9737C51.18 24.012 51.2389 24.0631 51.2862 24.1241C51.3335 24.1851 51.3683 24.2549 51.3887 24.3293C51.409 24.4038 51.4145 24.4816 51.4048 24.5582L49.832 36.9802C49.8123 37.1349 49.7321 37.2754 49.6089 37.3709C49.4856 37.4664 49.3296 37.5091 49.1749 37.4896Z" fill="#8EE6F3"/>
<path d="M35.5969 56.7977L38.9176 30.5711C39.3186 27.404 37.0684 24.5104 33.8914 24.1082L13.3368 21.5056C10.1599 21.1034 7.25938 23.3448 6.85838 26.512L4.26379 47.0038C3.86279 50.171 6.11301 53.0646 9.29001 53.4668L20.5819 54.8965L19.9141 60.1708L27.413 55.7615L35.5969 56.7977Z" fill="#72D1FB"/>
<path d="M33.8917 24.1082L25.7461 23.0768C28.9229 23.4791 31.1733 26.3727 30.7723 29.5398L27.4516 55.7663L35.5972 56.7977L38.9179 30.5712C39.3187 27.404 37.0685 24.5104 33.8917 24.1082Z" fill="#62A6FD"/>
<path d="M28.9152 41.427L24.7813 40.9035L25.581 38.2218L29.262 38.6879C30.7105 38.8713 30.9948 36.6256 29.5464 36.4422L26.2366 36.0231L27.3284 32.3618C27.7455 30.9629 25.5765 30.3159 25.1592 31.7151L23.9605 35.735L21.2518 35.392L22.3436 31.7307C22.7608 30.3318 20.5921 29.6846 20.1744 31.084L18.9758 35.1038L14.4705 34.5334C13.0221 34.35 12.7378 36.5956 14.1862 36.779L18.3202 37.3025L17.5205 39.9842L13.8394 39.5181C12.391 39.3347 12.1066 41.5804 13.5551 41.7638L16.8649 42.1829L15.7731 45.8442C15.3602 47.2283 17.5244 47.892 17.9423 46.4909L19.1409 42.471L21.8496 42.814L20.7578 46.4753C20.345 47.8594 22.5091 48.5232 22.927 47.122L24.1257 43.1022L28.6309 43.6726C30.0793 43.856 30.3637 41.6104 28.9152 41.427ZM22.5052 40.6154L19.7967 40.2724L20.5964 37.5907L23.3051 37.9336L22.5052 40.6154Z" fill="#F7F3F1"/>
<path d="M47.2549 54.0165L32.6683 52.1696C30.4138 51.8841 28.3555 53.4747 28.0709 55.7223L26.2297 70.2642C25.9451 72.5118 27.5421 74.5652 29.7966 74.8507L37.8098 75.8653L37.3359 79.6083L42.6575 76.4792L44.3831 76.6977C46.6376 76.9831 48.6959 75.3926 48.9805 73.145L50.8217 58.603C51.1063 56.3554 49.5094 54.3019 47.2549 54.0165Z" fill="#FA9084"/>
<path d="M47.2545 54.0164L40.9667 53.2203C43.2211 53.5057 44.8181 55.5591 44.5335 57.8067L42.6923 72.3488C42.4077 74.5964 40.3493 76.187 38.0949 75.9015L37.8094 75.8654L37.3355 79.6083L42.6571 76.4792L44.3827 76.6976C46.6372 76.9831 48.6955 75.3925 48.9801 73.1449L50.8214 58.6028C51.1059 56.3554 49.509 54.3018 47.2545 54.0164Z" fill="#FF6CB5"/>
<path d="M37.8997 69.3747C41.6455 67.9583 43.6645 66.6053 43.975 64.1524C44.4034 60.7691 40.3659 59.3985 38.8606 61.7861C37.8392 58.9928 33.7461 59.4199 33.3178 62.803C33.0072 65.2559 34.6253 67.0693 37.8997 69.3747Z" fill="#F7F3F1"/>
</svg>
